<svg width="33" height="32" viewBox="0 0 33 32" fill="none" xmlns="http://www.w3.org/2000/svg">
<rect x="0.333252" width="32" height="32" rx="16" fill="#F58F56"/>
<g clip-path="url(#clip0_853_634)">
<path d="M23.7746 9.5254C23.3654 9.04795 22.8197 8.77509 22.2058 8.84332H10.4057C9.17796 8.84332 8.15483 10.0029 8.35946 11.2306L9.99647 21.462C10.1329 22.4851 11.0196 23.1672 12.0427 23.1672H20.637C21.6602 23.1672 22.5469 22.4169 22.6833 21.462L24.3203 11.2306C24.3885 10.6168 24.1839 10.0029 23.7746 9.5254ZM17.7723 17.7105C17.5676 17.5058 17.363 17.3694 17.0902 17.3012L17.6359 14.5729L16.2717 14.3L15.6578 17.233C15.385 17.3012 15.1121 17.5058 14.8393 17.7105L11.4289 14.3682C14.089 11.7081 18.3862 11.7081 21.0463 14.3682L17.7723 17.7105Z" fill="white"/>
</g>
<defs>
<clipPath id="clip0_853_634">
<rect width="16" height="16" fill="white" transform="translate(8.33325 8)"/>
</clipPath>
</defs>
</svg>
