<svg width="35" height="24" viewBox="0 0 35 24" fill="none" xmlns="http://www.w3.org/2000/svg">
<rect width="35" height="24" rx="4" fill="#FFF8EF"/>
<path fill-rule="evenodd" clip-rule="evenodd" d="M25.6274 12.0646C25.6274 16.5185 22.0169 20.1292 17.5632 20.1292C13.1095 20.1292 9.49902 16.5185 9.49902 12.0646C9.49902 7.61064 13.1095 4 17.5632 4C22.0169 4 25.6274 7.61064 25.6274 12.0646ZM19.5006 9.06831C20.6224 9.45354 21.4429 10.0304 21.282 11.1039C21.165 11.89 20.7277 12.2701 20.1465 12.4033C20.9438 12.8167 21.2155 13.6014 20.963 14.5503C20.4837 15.9157 19.3442 16.0307 17.8286 15.7453L17.4606 17.2131L16.5722 16.9922L16.9351 15.5441C16.7048 15.4871 16.4694 15.4261 16.227 15.361L15.8625 16.8162L14.9751 16.5954L15.3426 15.1246L13.5532 14.6748L13.9946 13.6613C13.9946 13.6613 14.6496 13.8343 14.6405 13.8216C14.8921 13.8837 15.004 13.7203 15.048 13.6119L16.0452 9.628C16.0564 9.43992 15.9911 9.20294 15.6311 9.11319C15.6448 9.10361 14.9857 8.95335 14.9857 8.95335L15.2221 8.00792L17.0141 8.45013L17.3786 6.99594L18.2665 7.21679L17.9096 8.64224C18.1485 8.69619 18.3885 8.75115 18.6218 8.80914L18.9762 7.39277L19.8646 7.61362L19.5006 9.06831ZM17.3749 11.4941C17.9801 11.6546 19.2969 12.0037 19.5264 11.0883C19.7606 10.1517 18.4812 9.8688 17.8548 9.7303L17.8548 9.73029L17.8547 9.73027C17.7838 9.71459 17.7212 9.70075 17.6702 9.68803L17.2277 11.4558C17.2699 11.4663 17.3194 11.4794 17.3749 11.4941ZM16.6892 14.3404C17.4141 14.5313 18.9993 14.9489 19.2515 13.9402C19.5097 12.9088 17.9727 12.5652 17.2228 12.3976L17.2227 12.3976C17.1389 12.3789 17.065 12.3623 17.0045 12.3473L16.5165 14.2956C16.5661 14.3079 16.6242 14.3232 16.6891 14.3403L16.6892 14.3404Z" fill="#F7931A"/>
</svg>
