<svg width="35" height="24" viewBox="0 0 35 24" fill="none" xmlns="http://www.w3.org/2000/svg">
<rect width="35" height="24" rx="4" fill="#F3FBFF"/>
<path d="M15.2363 17.7688L15.4509 16.4063L14.9731 16.3952H12.6914L14.277 6.34109C14.2819 6.31074 14.2979 6.28244 14.3213 6.26234C14.3447 6.24225 14.3747 6.23117 14.4059 6.23117H18.2531C19.5303 6.23117 20.4117 6.49695 20.8719 7.02154C21.0876 7.26763 21.2251 7.5248 21.2915 7.8078C21.3612 8.10476 21.3625 8.45954 21.2944 8.89226L21.2894 8.92384V9.2011L21.5052 9.32334C21.6869 9.41971 21.8312 9.53005 21.942 9.65638C22.1266 9.86679 22.246 10.1342 22.2964 10.4513C22.3485 10.7773 22.3312 11.1653 22.246 11.6046C22.1475 12.1099 21.9884 12.55 21.7735 12.9101C21.5757 13.242 21.3239 13.5171 21.0249 13.7305C20.7395 13.9331 20.4002 14.0869 20.0168 14.1854C19.6451 14.2821 19.2215 14.3309 18.7567 14.3309H18.4573C18.2433 14.3309 18.0352 14.408 17.8721 14.5463C17.7084 14.6874 17.6 14.8801 17.5669 15.0909L17.5443 15.2136L17.1653 17.615L17.1481 17.7032C17.1436 17.7312 17.1358 17.7451 17.1244 17.7545C17.1141 17.763 17.0993 17.7688 17.0849 17.7688H15.2363Z" fill="#253B80"/>
<path d="M21.7081 8.95639C21.6966 9.0298 21.6835 9.10486 21.6687 9.18197C21.1613 11.7869 19.4256 12.6868 17.2086 12.6868H16.0799C15.8088 12.6868 15.5804 12.8836 15.5381 13.151L14.9602 16.8162L14.7965 17.8551C14.769 18.0307 14.9044 18.189 15.0815 18.189H17.0836C17.3207 18.189 17.522 18.0167 17.5593 17.783L17.579 17.6812L17.956 15.2892L17.9802 15.158C18.017 14.9234 18.2188 14.7511 18.4559 14.7511H18.7553C20.6949 14.7511 22.2134 13.9636 22.6572 11.6847C22.8426 10.7328 22.7466 9.93789 22.256 9.37885C22.1076 9.21027 21.9234 9.07041 21.7081 8.95639Z" fill="#179BD7"/>
<path d="M21.1763 8.74412C21.0989 8.72156 21.0188 8.70105 20.9368 8.68259C20.8544 8.66455 20.7698 8.64855 20.6829 8.63461C20.3786 8.58539 20.0451 8.56201 19.6879 8.56201H16.6724C16.5982 8.56201 16.5277 8.57882 16.4645 8.60918C16.3254 8.67603 16.2221 8.8077 16.1971 8.96888L15.5555 13.0319L15.5371 13.1504C15.5794 12.883 15.8078 12.6861 16.0789 12.6861H17.2076C19.4246 12.6861 21.1604 11.7858 21.6677 9.18134C21.6829 9.10423 21.6956 9.02918 21.7071 8.95577C21.5787 8.88768 21.4396 8.82943 21.2899 8.7798C21.2531 8.7675 21.215 8.75561 21.1763 8.74412Z" fill="#222D65"/>
<path d="M16.199 8.96916C16.2241 8.80796 16.3275 8.6763 16.4665 8.60986C16.5301 8.5795 16.6002 8.56269 16.6744 8.56269H19.6899C20.0472 8.56269 20.3806 8.58607 20.6849 8.63529C20.7719 8.64923 20.8564 8.66523 20.9388 8.68327C21.0209 8.70174 21.1008 8.72224 21.1784 8.74479C21.2169 8.75628 21.255 8.76817 21.2923 8.78007C21.442 8.8297 21.5811 8.88835 21.7095 8.95603C21.8605 7.99339 21.7083 7.33797 21.1878 6.74447C20.614 6.0911 19.5784 5.81137 18.2532 5.81137H14.4058C14.1351 5.81137 13.9043 6.00824 13.8624 6.27607L12.26 16.4336C12.2283 16.6345 12.3834 16.8159 12.586 16.8159H14.9612L15.5576 13.0322L16.199 8.96916Z" fill="#253B80"/>
</svg>
